<svg viewBox="0 0 1601 253" fill="none" xmlns="http://www.w3.org/2000/svg"><path d="M685.127 0C690.92 1.08353e-05 693.343 2.89709 692.397 8.68555L676.848 96.7646C670.802 97.8593 665.243 99.2742 660.207 100.842C660.243 100.684 660.284 100.512 660.32 100.332L674.856 18.168C675.068 17.1097 675.068 16.4519 674.856 16.1904C674.645 15.9337 674.014 15.7979 672.96 15.7979H661.901C660.847 15.7979 660.162 15.9292 659.847 16.1904C659.531 16.4519 659.266 17.1142 659.059 18.168L644.518 100.332C644.306 101.39 644.338 102.048 644.599 102.31C644.86 102.575 645.522 102.702 646.576 102.702H654.648C642.756 106.95 634.351 111.819 629.968 114.666C629.954 114.675 629.941 114.684 629.932 114.693C629.648 114.874 629.391 115.049 629.139 115.216C629.112 115.234 629.089 115.248 629.062 115.266C628.833 115.419 628.616 115.567 628.413 115.707C628.382 115.729 628.355 115.748 628.323 115.766C628.161 115.883 628.003 115.991 627.859 116.09C626.828 114.648 626.589 112.558 627.139 109.819L644.99 8.68945C645.941 2.89671 649.311 0 655.108 0H685.127ZM741.376 0.000976562C747.169 0.000976562 749.597 2.89783 748.638 8.69531L745.953 23.7041H730.15L731.574 15.8076H718.146C717.092 15.8077 716.412 15.9381 716.092 16.1992C715.777 16.4604 715.511 17.123 715.304 18.1768L701.857 94.1797C698.506 94.3599 695.438 94.5629 692.632 94.7656C690.343 94.9323 688.113 95.1479 685.929 95.4092L701.244 8.69043C702.195 2.89747 705.564 0.000995763 711.357 0.000976562H741.376ZM734.146 90.4629C733.264 91.2107 732.678 91.765 732.385 92.0488C732.295 92.1343 732.236 92.1935 732.2 92.2295C732.061 92.3735 731.93 92.531 731.809 92.6885C731.804 92.6975 731.8 92.7025 731.8 92.707L731.768 92.7383C731.759 92.7605 731.75 92.7786 731.732 92.8008C731.57 93.0304 731.431 93.2694 731.313 93.5215C726.494 93.4764 722.007 93.5039 717.831 93.585L721.943 69.8408H737.736L734.146 90.4629ZM974.136 0.000976562L970.023 23.7002H954.212L955.64 15.8037H939.838L935.887 38.2412H964.329L961.487 54.0391H933.045L926.454 91.625C924.832 90.6296 922.747 89.6792 920.652 88.8369C920.63 88.8279 920.616 88.8147 920.594 88.8057C920.526 88.7696 920.458 88.7294 920.382 88.6934C920.242 88.6303 920.098 88.571 919.954 88.5215C919.801 88.4674 919.463 88.351 918.94 88.1709C918.936 88.1708 918.927 88.1656 918.909 88.1611C915.378 86.8413 912.197 85.9137 911.701 85.7695C911.688 85.7694 911.679 85.7652 911.661 85.7607C911.643 85.7607 911.634 85.7559 911.634 85.7559L926.729 0.000976562H974.136ZM961.803 69.8408L958.703 87.5127C956.5 88.1343 953.32 88.8959 949.257 89.54C946.874 89.9229 944.626 90.2245 942.433 90.4678L946 69.8408H961.803ZM889.12 69.6836L901.444 0.000976562H917.251L902.651 82.9316C895.881 80.864 887.556 78.458 878.479 76.1201L877.115 48.8271L872.552 74.625C867.592 73.4088 862.475 72.2379 857.317 71.1748L869.845 0.000976562H885.643L889.12 69.6836ZM802.685 15.8037H786.882L777.283 70.0615C771.035 71.5616 765.467 73.3771 760.553 75.3096L771.08 15.8037H755.282L757.967 0.000976562H805.369L802.685 15.8037ZM851.988 0.000976562C857.776 0.00105732 860.204 2.89739 859.254 8.68555L848.497 69.4668C843.29 68.5343 838.109 67.7415 833.077 67.1514L835.393 54.0391H819.591L817.478 66.0215C811.915 65.8954 806.64 66.0252 801.645 66.3721L811.852 8.69043C812.802 2.89745 816.172 0.000976562 821.965 0.000976562H851.988ZM828.758 15.8037C827.704 15.8037 827.023 15.934 826.708 16.1953C826.388 16.4566 826.127 17.1188 825.915 18.1729L822.438 38.2412H838.24L841.718 18.1729C841.925 17.1191 841.925 16.4567 841.718 16.1953C841.506 15.9386 840.871 15.8037 839.821 15.8037H828.758Z" fill="url(#paint0_linear_1_698)"></path><path d="M884.656 105.518C868.083 106.968 850.848 108.324 829.068 115.784C829.068 115.784 852.898 101.491 901.994 97.6752C926.306 95.7877 935.405 96.3598 949.978 94.0399C959.172 92.5759 964.1 90.5488 964.1 90.5488L949.915 111.459C949.915 111.459 939.892 105.905 917.869 104.811C924.738 107.423 929.644 111.54 934.689 116.842C925.184 109.712 913.504 106.743 902.787 106.648C888.192 106.518 875.836 111.189 865.421 120.194C870.831 113.667 876.75 108.545 884.656 105.518Z" fill="white"></path><path d="M819.325 70.6294C858.808 71.9808 918.454 92.8193 918.454 92.8193C918.454 92.8193 867.84 76.4854 819.194 74.8187C777.616 73.3953 754.8 90.2291 748.169 95.8825L735.435 95.4455C735.435 95.441 762.08 68.6699 819.325 70.6294Z" fill="white"></path><path d="M748.165 95.8781L735.43 95.4411C739.579 92.4771 773.454 73.2467 819.19 74.8143C777.612 73.3909 754.796 90.2292 748.165 95.8781Z" fill="white"></path><path d="M629.391 120.645L629.278 120.685C629.278 120.685 653.122 102.171 692.961 99.3015C706.857 98.3015 723.245 97.6258 744.498 98.3555C830.983 101.315 840.06 101.626 840.06 101.626C840.06 101.626 846.538 101.847 857.646 93.986C867.182 87.2336 831.672 79.4585 801.532 80.5352C801.532 80.5352 837.551 75.1972 906.778 93.0401C906.778 93.0401 881.588 92.3824 850.997 102.257C850.794 102.32 850.587 102.383 850.376 102.459C850.339 102.473 850.308 102.482 850.272 102.495C849.533 102.734 848.794 102.982 848.056 103.234C843.353 104.725 842.866 105.86 834.253 105.482C819.338 104.829 787.103 103.73 767.35 102.986C750.093 102.338 737.192 103.432 733.3 104.603C739.345 107.356 744.724 111.396 748.854 116.55C739.349 109.419 727.723 105.153 715.123 104.991C700.533 104.802 687.114 110.149 676.699 119.153C678.483 116.572 681.204 113.496 684.6 110.752C681.145 110.532 674.879 110.401 665.464 111.802C657.086 113.054 637.175 117.59 629.391 120.645Z" fill="white"></path><path d="M747.845 115.356C747.683 115.171 747.521 114.987 747.359 114.802C747.345 114.784 747.327 114.766 747.314 114.752C747.215 114.644 747.115 114.536 747.012 114.428C746.998 114.415 746.985 114.401 746.971 114.383C746.818 114.216 746.66 114.05 746.503 113.883C746.395 113.77 746.287 113.662 746.178 113.554C746.097 113.473 746.016 113.388 745.931 113.306C745.841 113.216 745.751 113.126 745.66 113.036C745.552 112.933 745.444 112.824 745.336 112.721C745.156 112.55 744.976 112.378 744.796 112.212C744.687 112.113 744.579 112.014 744.471 111.914C744.282 111.743 744.093 111.572 743.899 111.405C743.796 111.315 743.692 111.225 743.584 111.135C743.372 110.955 743.16 110.775 742.944 110.604C742.854 110.532 742.768 110.455 742.678 110.383C742.435 110.185 742.187 109.996 741.94 109.802C741.877 109.752 741.813 109.703 741.75 109.653C741.746 109.649 741.737 109.644 741.732 109.64C741.462 109.432 741.187 109.23 740.913 109.032C740.804 108.955 740.696 108.874 740.588 108.797C740.39 108.658 740.187 108.518 739.985 108.378C739.876 108.306 739.768 108.23 739.66 108.158C739.367 107.964 739.075 107.77 738.777 107.581C738.728 107.549 738.678 107.518 738.624 107.486C738.336 107.306 738.048 107.126 737.755 106.95C737.674 106.901 737.593 106.856 737.516 106.811C737.255 106.658 736.993 106.504 736.728 106.356C736.633 106.302 736.539 106.248 736.439 106.198C736.187 106.058 735.93 105.919 735.674 105.784C735.57 105.73 735.466 105.676 735.367 105.622C735.291 105.581 735.214 105.545 735.138 105.504C734.957 105.414 734.782 105.324 734.602 105.234C734.493 105.180 734.39 105.126 734.282 105.076C734.025 104.955 733.768 104.833 733.511 104.712C728.565 102.428 723.164 101.009 717.615 100.554C725.835 100.27 733.845 100.297 741.102 100.414C772.58 100.914 840.06 101.63 840.06 101.63C840.06 101.63 830.983 101.32 744.498 98.36C723.245 97.6348 706.957 98.4186 693.06 99.4186C690.578 99.5988 687.978 99.815 685.316 100.067C650.09 104.527 629.274 120.69 629.274 120.69L629.386 120.649C633.986 118.847 642.806 116.527 650.986 114.676C663.496 108.004 688.492 102.545 705.15 101.243C697.506 102.743 690.316 106.149 684.541 110.802C684.487 110.842 684.438 110.887 684.384 110.932C684.28 111.014 684.181 111.099 684.082 111.18C684.032 111.221 683.983 111.261 683.938 111.302C683.758 111.455 683.573 111.608 683.397 111.766C683.312 111.842 683.226 111.919 683.14 111.991C683.041 112.081 682.942 112.167 682.843 112.257C682.753 112.338 682.663 112.424 682.573 112.505C682.483 112.586 682.393 112.667 682.307 112.752C682.217 112.838 682.122 112.924 682.032 113.009C681.951 113.09 681.866 113.167 681.785 113.248C681.694 113.333 681.6 113.424 681.51 113.514C681.433 113.59 681.357 113.662 681.285 113.739C681.19 113.833 681.1 113.924 681.005 114.018C680.947 114.077 680.893 114.135 680.834 114.194C680.6 114.433 680.37 114.671 680.149 114.91C680.136 114.928 680.118 114.942 680.104 114.96C679.996 115.077 679.893 115.189 679.784 115.307C679.739 115.352 679.699 115.401 679.654 115.446C679.55 115.559 679.451 115.676 679.352 115.789C679.311 115.834 679.271 115.883 679.23 115.928C679.127 116.045 679.028 116.162 678.929 116.275C678.897 116.316 678.866 116.352 678.829 116.388C678.726 116.514 678.618 116.635 678.519 116.761C678.505 116.775 678.492 116.793 678.483 116.807C678.001 117.392 677.555 117.964 677.149 118.523C676.996 118.735 676.843 118.951 676.69 119.167C676.69 119.167 690.506 103.387 711.583 102.662C735.669 101.833 748.845 116.563 748.845 116.563C748.597 116.257 748.345 115.951 748.093 115.653C748.012 115.545 747.926 115.451 747.845 115.356Z" fill="white"></path><path d="M846.623 82.7469C868.178 86.648 872.124 88.3237 862.443 93.6077C848.52 101.211 848.929 101.928 840.339 101.635C840.276 101.63 840.213 101.63 840.145 101.626C840.934 101.621 847.272 101.329 857.641 93.986C867.178 87.2336 831.668 79.4586 801.527 80.5352C801.527 80.5397 824.532 78.7558 846.623 82.7469Z" fill="white"></path><path d="M819.325 70.6294C858.808 71.9808 918.454 92.8193 918.454 92.8193C918.454 92.8193 862.434 74.2016 817.113 72.652C771.792 71.1024 744.21 87.8326 735.435 95.4455C735.435 95.441 762.08 68.6699 819.325 70.6294Z" fill="white"></path><path d="M964.1 90.5488C964.1 90.5488 959.172 92.5759 949.978 94.0399C935.405 96.3598 926.306 95.7877 901.994 97.6752C852.898 101.491 829.068 115.784 829.068 115.784C829.068 115.784 859.678 102.085 900.706 101.103C912.814 100.815 922.774 100.846 931.099 100.864C951.834 100.653 961.807 93.585 964.1 90.5488Z" fill="white"></path><path d="M671.541 115.631C671.541 115.631 656.257 117.05 644.373 120.937C658.865 122.6 670.428 120.302 671.541 115.631Z" fill="url(#paint1_linear_1_698)"></path><path d="M832.965 130.586C834.204 130.586 835.033 130.78 835.456 131.171C835.839 131.59 835.956 132.294 835.808 133.285L835.763 133.578L833.068 134.136L833.272 132.812H824.731L824.329 135.429H832.398C833.672 135.429 834.501 135.636 834.889 136.045C835.254 136.455 835.353 137.231 835.177 138.366L834.915 140.064C834.744 141.19 834.397 141.965 833.884 142.384C833.37 142.794 832.487 143.001 831.231 143.001H823.194C821.897 143.001 821.059 142.794 820.681 142.384C820.289 141.97 820.181 141.195 820.357 140.064L820.41 139.712L823.186 139.217L822.96 140.676H832.086L832.524 137.834H824.487C823.213 137.834 822.384 137.627 821.996 137.217C821.613 136.798 821.505 136.023 821.676 134.902L821.888 133.519C822.054 132.429 822.398 131.654 822.92 131.199C823.434 130.789 824.325 130.586 825.6 130.586H832.965ZM676.87 140.677H686.605L686.248 142.997H673.46L675.36 130.583H678.415L676.87 140.677ZM704.384 142.997H701.389L703.29 130.583H706.285L704.384 142.997ZM730.943 137.947L738.119 130.583H740.557L738.655 142.997H735.84L737.147 134.457L730.525 141.497H729.94L725.349 134.664L724.074 142.997H721.664L723.566 130.583H725.971L730.943 137.947ZM770.017 130.583C771.292 130.583 772.125 130.79 772.508 131.2C772.877 131.61 772.972 132.384 772.796 133.519L771.796 140.06C771.625 141.186 771.278 141.96 770.77 142.379C770.256 142.789 769.373 142.997 768.116 142.997H758.522C757.242 142.997 756.413 142.789 756.034 142.379C755.665 141.983 755.571 141.208 755.746 140.06L756.746 133.519C756.922 132.375 757.255 131.601 757.746 131.2C758.251 130.789 759.138 130.583 760.422 130.583H770.017ZM791.982 140.677H800.612L802.157 130.583H805.207L803.757 140.06C803.586 141.191 803.239 141.965 802.721 142.379C802.216 142.789 801.324 142.997 800.045 142.997H791.824C790.563 142.997 789.743 142.789 789.369 142.379C789 141.983 788.906 141.209 789.081 140.06L790.531 130.583H793.526L791.982 140.677ZM854.772 142.997H851.776L853.677 130.583H856.673L854.772 142.997ZM885.314 138.826L886.574 130.583H889.305L887.403 142.997H885.318L876.097 134.636L874.818 142.997H872.061L873.962 130.583H876.038L885.314 138.826ZM919.567 132.781H909.301L908.886 135.483H914.868L914.539 137.627H908.558L908.089 140.677H918.513L918.156 142.997H904.688L906.589 130.583H919.904L919.567 132.781ZM758.684 140.619H768.693L769.887 132.839H759.877L758.684 140.619Z" fill="url(#paint2_linear_1_698)"></path><defs><linearGradient id="paint0_linear_1_698" x1="800.494" y1="3.80482e-08" x2="800.28" y2="75.9037" gradientUnits="userSpaceOnUse"><stop stop-color="#FFE1B8"></stop><stop offset="1" stop-color="#FBC476"></stop></linearGradient><linearGradient id="paint1_linear_1_698" x1="657.957" y1="115.631" x2="657.957" y2="121.476" gradientUnits="userSpaceOnUse"><stop stop-color="#FFE1B8"></stop><stop offset="1" stop-color="#FBC476"></stop></linearGradient><linearGradient id="paint2_linear_1_698" x1="796.682" y1="130.583" x2="796.682" y2="143.001" gradientUnits="userSpaceOnUse"><stop stop-color="#FFE1B8"></stop><stop offset="1" stop-color="#FBC476"></stop></linearGradient></defs></svg>